Patient4_TMGait_0pt7_02_left_40_EMG.mot
version=1
nRows=39
nColumns=33
inDegrees=no
endheader
time	1LAddLong	2LGlutMax	3LGlutMed	4LIliopsoas	5LSemiMemb	6LBicFemLong	7LRecFem	8LVastMed	9LVastLat	10LGasMed	11LTibAnt	12lTibPost	13LPeroneusLong	14LSol	15LExtDigLong	16LFlexDigLong	17RAddLong	18RGlutMax	19RGlutMed	20RIliopsoas	21RSemiMemb	22RBicFemLong	23RRecFem	24RVastMed	25RVastLat	26RGasMed	27RTibAnt	28RTibPost	29RPeroneusLong	30RSol	31RExtDigLong	32RFlexDigLong
47.028	-0.006561	0.083771	-0.044708	0.007935	0.033417	0.03479	0.026398	0.020447	0.01358	-0.018005	0.066681	0.00061	0.11871	-0.056763	0.30334	0.012512	-0.002289	-0.21622	0.61401	0.005035	-0.12436	-0.11566	-0.002899	0.14816	0.16068	-0.019989	-0.015411	-0.000916	-0.083618	0.56107	-0.004425	-0.020599
47.029	0.011139	0.06134	-0.001831	0.011292	0.036621	0.022888	0.001221	-0.018005	0.010834	-0.019073	-0.011444	0.000305	0.076752	-0.073242	0.47165	0.003204	-0.025177	-0.28458	-0.12146	0.13733	-0.013428	-0.2446	-0.044861	0.041504	0.13825	-0.020599	0.12299	0.001526	-0.10696	0.34866	-0.002594	-0.027466
47.03	0.00061	0.035706	-0.056152	0.01297	0.010071	0.003357	0.03891	0.002136	0.014191	-0.028687	-0.11871	-0.003967	0.028229	-0.10651	0.20493	0.001984	-0.061951	-0.32044	-0.25375	0.078125	-0.04776	-0.20081	-0.11871	-0.016022	0.011902	-0.019989	0.38284	-0.001373	-0.09613	-0.097504	-0.00351	-0.019836
47.031	0.002747	-0.00473	-0.081482	0.011292	0.011444	0.021515	0.0354	0.005646	0	-0.045319	-0.029297	-0.002594	0.055847	-0.093842	0.10819	0.009308	-0.037994	-0.17914	-0.037079	-0.040131	-0.000305	-0.14175	-0.055847	0.014496	-0.036469	-0.006561	0.36606	0.002594	-0.11749	-0.47455	-0.002747	-0.015564
47.032	-0.002899	-0.035095	-0.080261	0.008545	0.01709	0.050354	0.037842	0.004883	0.001526	-0.045929	0.21744	0.000763	0.071106	-0.043335	0.030518	0.009766	-0.017548	-0.21103	0.32837	-0.048523	-0.015717	-0.099335	-0.022888	0.025177	-0.11459	-0.015106	0.27176	0.010071	-0.16495	-0.37964	-0.003967	-0.015106
47.033	-0.011597	-0.033264	-0.076447	0.000305	-0.046539	0.029144	0.033875	0.007019	0.002899	-0.020447	0.27466	0.002289	0.078278	-0.039978	-0.061798	0.006561	0.015411	-0.3096	0.10208	0.032349	-0.009766	-0.1297	0.039978	-0.096283	-0.17487	-0.004272	-0.45715	-0.00061	-0.04715	-0.25879	-0.007324	-0.007324
47.034	-0.007019	-0.04425	-0.03891	0.008698	-0.065918	-0.061646	0.00351	-0.002289	0.02533	-0.021973	0.14923	-0.001526	0.10544	-0.069275	-0.37506	-0.012512	0.031586	-0.3157	-0.21652	0.11063	-0.002136	-0.18692	-0.005646	-0.15991	-0.10712	0.00061	-0.26977	0.004425	-0.02182	-0.07431	-0.002441	-0.016632
47.035	0.013885	-0.081329	0.079041	-0.012665	0.023804	-0.13016	-0.027924	-0.006104	0.032349	-0.056915	-0.030823	-0.002899	0.092773	-0.071716	-0.26886	0.007019	0.024567	-0.32364	-0.16785	0.065918	-0.04303	-0.085144	0.10544	-0.071411	-0.01709	-0.02533	0.19653	0.003815	-0.03067	0.33783	-0.002136	-0.002136
47.036	0.013885	-0.1062	0.044556	-0.008698	0.080872	-0.13458	-0.049591	-0.007019	0.015106	-0.084534	-0.036774	0.003052	0.073547	-0.083618	-0.10254	-0.007324	0.011139	-0.23544	-0.12421	-0.03479	-0.12329	0.070343	0.17899	-0.030975	0.003204	-0.057068	0.2092	0.002747	0.053558	0.30823	0.000763	-0.008087
47.037	0.066223	-0.098419	0.016785	-0.005646	0.066986	-0.066223	-0.009918	-0.004272	0.007477	-0.086517	-0.037384	0.001068	0.11124	-0.10132	-0.052643	0.008087	-0.020294	-0.19516	-0.26337	0.006104	-0.13641	0.11566	0.090027	-0.00824	-0.016785	-0.055847	0.17975	-0.006866	0.013733	0.33859	-0.005493	0.000458
47.038	0.019226	-0.11475	-0.00824	-0.002594	0.028381	-0.013733	-0.019379	-0.002899	0.016937	-0.085754	0.03006	0.001831	0.074615	-0.09201	0.034485	0.009918	-0.019226	-0.24002	-0.24948	0.029755	0.057526	0.079651	0.12344	-0.017853	-0.031433	-0.06073	0.25406	-0.006409	-0.02182	0.36285	-0.003662	-0.005646
47.039	0.021362	-0.11902	-0.062256	0.00946	0.029297	0.004425	-0.031433	0.000305	0.014801	-0.10437	-0.043945	0.00351	0.029144	-0.031891	0.043488	0.00473	-0.000763	-0.22034	-0.11581	0.06134	0.12466	0.12375	0.081787	-0.078278	-0.017548	-0.02182	0.29984	-0.011902	-0.035553	0.1178	-0.007324	-0.002441
47.04	0.007019	-0.11536	-0.077209	0.012665	0.008392	-0.003815	-0.037384	-0.000916	0.014038	-0.098724	-0.037079	0.005188	0.047302	-0.052948	0.000305	0.000153	0.00473	-0.21576	0.066376	0.073395	0.10422	0.19119	-0.032043	-0.10223	-0.026855	0.052185	0.14938	-0.011292	-0.005188	-0.097351	-0.003052	-0.007629
47.041	0.027924	-0.098724	-0.051575	0.010071	0.008087	-0.014343	-0.027924	-0.000763	0.02121	-0.021973	-0.056305	0.001984	0.079803	-0.067139	-0.033875	-0.001068	-0.006409	-0.2095	-0.010529	0.059357	0.007935	0.30853	-0.14847	-0.12436	-0.025177	0.025635	0.18555	-0.009308	-0.091553	-0.16205	-0.00473	-0.003357
47.042	0.025787	-0.1329	-0.016327	0.010681	0.025177	-0.000916	-0.026093	0.005188	0.00946	0.037079	-0.061951	-0.001373	0.10834	-0.050659	0.11032	0.001221	-0.010986	-0.23743	0.1564	0.015564	-0.065002	0.25971	-0.3389	-0.18982	0.38925	0.011749	0.3125	-0.009613	-0.007782	-0.16281	-0.00351	-0.015259
47.043	0.013428	-0.16419	-0.04303	0.010834	0.025635	0.006256	-0.023346	0.002747	0.017548	0.047913	0.002899	0.007782	0.07843	-0.050659	0.095215	-0.000458	0.002289	-0.17456	-0.056	-0.022736	-0.027466	0.12909	-0.33066	-0.16266	0.71259	0.00351	0.12299	-0.009308	0.092163	-0.16235	-0.007782	-0.010681
47.044	0.018921	-0.18204	-0.051422	0.016174	0.01709	0.014496	-0.037231	0.006409	0.006714	0.023499	0.012512	0.006409	0.10941	-0.045929	0.076752	0.011292	0.018005	-0.15869	-0.13031	-0.06897	-0.019989	0.064087	-0.039825	-0.15488	0.91934	0.003357	0.29968	-0.00885	0.04425	-0.17105	-0.003052	-0.002594
47.045	0.013123	-0.17258	-0.16525	0.012817	0.020294	0.037689	-0.024261	0.003357	0.00824	-0.002899	0.013275	0.012512	0.088959	-0.054321	0.049438	-0.008698	0.039368	-0.16251	-0.22873	-0.033264	-0.032349	0.000763	0.22247	-0.12543	0.68649	0.007324	0.23575	-0.013733	-0.10407	-0.24872	-0.004425	-0.004578
47.046	0.011597	-0.1355	-0.21545	0.005798	0.015411	0.037689	-0.029449	0.001984	-0.00351	-0.010681	0.017548	0.003967	0.074768	-0.04715	0.065765	-0.003967	0.018616	-0.16998	-0.40024	-0.046082	0.019836	-0.027313	0.14999	-0.065918	0.52338	0.004272	-0.43304	-0.015106	-0.26016	-0.18463	-0.002899	-0.005646
47.047	0.006409	-0.12146	-0.16968	0.003357	0.02182	0.00946	-0.038605	0.00946	-0.003052	0.032501	0.000458	0.006714	0.076294	-0.058136	0.060883	-0.000458	-0.002747	-0.20783	-0.41489	0.015869	0.011292	-0.011749	-0.029602	0.14542	0.27969	0.009918	-0.53772	-0.017242	-0.35904	-0.11688	-0.007629	-0.007477
47.048	0.007629	-0.12497	-0.062714	0.007172	0.00885	0.009613	-0.043182	0.003967	0.003967	0.060883	-0.005951	0.000916	0.10178	-0.066528	0.038605	0.005951	-0.002899	-0.22705	-0.4007	0.091095	-0.017242	0.002747	-0.23804	0.12573	-0.18585	0.009918	-0.02243	-0.016174	-0.36087	-0.10254	-0.00473	-0.010986
47.049	0.010681	-0.17334	0.006714	0.005035	-0.027161	0.006714	-0.026398	0.003967	-0.001831	0.049896	0.001678	0.011139	0.11276	-0.063477	0.024414	0.003052	0.002441	-0.2945	-0.3183	0.057983	-0.032196	0.014191	-0.40405	-0.053558	-0.64179	0.000763	0.11063	-0.022583	-0.25833	0.012512	-0.000916	-0.014801
47.05	0.014801	-0.17578	-0.12253	0.013885	0.011749	0.022736	-0.020447	0.002747	-0.003357	0.038147	0.005798	0.005341	0.070953	-0.057068	0.007172	0.015411	0.006866	-0.20874	-0.17136	-0.019989	-0.028229	0.052338	-0.20523	0.18326	-0.81619	-0.009766	-0.14267	-0.020752	-0.14938	0.082855	-0.001373	-0.009003
47.051	0.005341	-0.19028	-0.007172	0.00946	0.022125	0.055847	-0.015717	0.007324	-0.00885	0.019531	0.020599	0.006256	0.018921	-0.046539	0.013428	0.002594	-0.004578	-0.14114	-0.13641	-0.0737	0.033875	0.12253	0.040131	0.31738	-0.58014	-0.00946	0.097504	-0.023193	0.51376	-0.022888	-0.004425	-0.009003
47.052	-0.000458	-0.20462	0.089569	0.012817	-0.000763	0.076294	-0.022125	0.01358	-0.00351	-0.007629	0.02594	0.009613	0.016937	-0.032043	0.037994	0.001831	0.003204	-0.16571	-0.17639	-0.08606	0.003357	0.11307	0.019836	0.2121	-0.54382	-0.01236	-0.005035	-0.019684	0.21194	-0.085907	-0.002747	-0.010376
47.053	-0.005646	-0.19501	0.09964	0.00473	0.014648	0.054016	-0.007019	0.008545	-0.008698	-0.02594	0.019226	0.007324	0.020752	-0.040131	0.037994	-0.018311	0.019989	-0.14526	0.1178	-0.029755	-0.0177	0.089874	-0.048676	0.004272	-0.2887	-0.010376	0.13306	-0.023499	0.11154	-0.12131	-0.001526	-0.011902
47.054	-0.003967	-0.20645	0.058441	0.009308	-0.011444	-0.026855	-0.011444	0.005646	-0.008392	0.005798	0.025177	0.001221	0.023804	-0.04364	0.016785	-0.010529	0.016479	-0.19028	0.1178	0.023193	-0.001678	0.043488	0.003967	0.005951	-0.11078	-0.018311	0.40787	-0.023193	0.058899	-0.039825	-0.003357	-0.005493
47.055	-0.005646	-0.20676	0.071411	0.016632	0.011444	-0.082855	-0.026398	0.007324	0.004425	-0.006104	0.023956	0.008087	0.052338	-0.05188	0.005188	0.001221	0.016785	-0.10483	-0.27573	0.04776	0.074921	-0.029907	0.015869	0.001221	-0.050507	-0.019989	-0.091858	-0.027008	0.040894	0.022736	-0.002747	-0.002136
47.056	0.004578	-0.23193	0.084534	0.003967	-0.035553	-0.080566	-0.024872	0.004883	0.000305	0.000153	0.020447	0.01236	0.08667	-0.059052	-0.012665	0.008087	0.02655	-0.095367	-0.036316	0.045624	0.011749	-0.031433	0.026093	-0.035553	-0.006561	-0.006866	-0.16296	-0.023499	0.10422	-0.19699	-0.002289	-0.00351
47.057	0.005341	-0.21988	0.051575	0.001678	-0.041809	-0.075531	-0.022278	0.005951	-0.005341	0.001221	-0.001678	-0.000763	0.1178	-0.053711	-0.00885	0.010071	0.010223	-0.090637	-0.30807	0.087433	0.025635	-0.081787	-0.017242	-0.000458	0.024567	0.000153	-0.14389	0.001984	0.14389	-0.4277	-0.007477	-0.009003
47.058	0.010986	-0.25207	0.01236	0.006256	-0.017853	-0.062256	-0.016022	-0.002136	0.008392	-0.010834	-0.008392	0.006409	0.10651	-0.047607	-0.006104	0.018463	-0.010223	-0.066071	-0.70068	0.11017	-0.038605	-0.19272	-0.071869	-0.001373	0.015869	-0.001373	-0.30029	-0.000305	0.021515	-0.32028	-0.005341	-0.012665
47.059	0.008392	-0.25284	-0.035095	0.000763	0.004883	-0.023346	-0.019226	0.002289	0.006561	-0.014343	0.002747	0.007782	0.065308	-0.038605	0.008087	0.014954	0.010529	-0.068512	-0.69214	0.10712	-0.12909	-0.18021	-0.046692	-0.011902	0.026093	0.005646	-0.032349	0.012512	-0.0383	0.075378	-0.00473	-0.008392
47.06	0.007935	-0.20996	-0.067444	0.014191	0.062256	0.005341	-0.024872	0.001373	0.000763	-0.021057	0.010223	0.005341	0.054169	-0.037994	-0.000458	0.00885	0.006256	0.036621	-0.29419	0.005188	-0.004272	-0.14221	-0.065308	0.033264	0.024261	0.002747	0.071259	-0.010071	-0.22232	0.3949	-0.006561	-0.011444
47.061	-0.001831	-0.25345	-0.076294	0.014343	0.063629	0.034485	-0.03418	-0.003204	-0.010223	-0.032349	0.006104	0.010223	0.050812	-0.052643	0.007324	0.011444	-0.014038	-0.037994	0.058136	-0.015259	0.076447	-0.070038	-0.047607	0.028229	0.036926	0.018311	0.25772	-0.019379	-0.26413	0.14252	-0.009155	-0.02121
47.062	0.001984	-0.28183	-0.088348	0.018921	0.015259	0.026245	-0.044556	-0.000458	0.002899	-0.030823	0.00824	0.004272	0.05661	-0.052338	0.010986	0.015411	-0.022583	-0.052948	-0.11108	0.011444	0.084229	-0.042572	-0.064545	0.011749	0.039673	-0.016327	0.42221	-0.017242	-0.23987	-0.3566	-0.00351	-0.029907
47.063	-0.002899	-0.26138	-0.084381	0.006561	-0.044403	-0.021057	-0.045624	0.003357	0.001984	-0.024414	0.00946	0.00351	0.033569	-0.057678	-0.001678	0.011902	-0.014954	-0.036774	0.037994	-0.003204	0.005341	-0.033722	-0.07843	0.012512	0.033722	-0.050049	0.52841	-0.016174	-0.12436	-0.95169	-0.005493	-0.021667
47.064	0.000458	-0.27344	-0.074768	0.007935	-0.091095	-0.030365	-0.038452	0.004425	0.000916	-0.020447	0.006409	-0.002441	0.041656	-0.063934	-0.006104	0.022125	0.005493	-0.015259	0.33661	-0.10223	-0.13672	-0.002136	-0.041199	-0.018616	0.041046	-0.003967	0.58624	-0.001526	0.08194	-0.64316	-0.00824	-0.016937
47.065	0.002747	-0.23819	-0.070038	0.011902	-0.034637	-0.052338	-0.039215	0.00061	0.006866	-0.018616	0.006409	0.006866	0.02655	-0.058899	-0.003662	0.008698	0.016174	-0.019379	0.10819	-0.065765	-0.18799	0.054474	-0.066223	-0.011749	0.063324	0.013733	0.21561	0.000305	0.29419	0.19424	-0.005341	0.002747
47.066	0.009766	-0.22354	-0.098877	0.010376	0.10407	-0.075226	-0.019531	-0.003052	0.011597	-0.028687	0.009766	0.00351	0.011597	-0.056915	-0.009003	0.012054	-0.005188	-0.051575	-0.13397	0.015259	0.055084	0.06958	-0.065002	0.06424	0.069885	0.024872	0.081177	0.00473	0.2681	0.62042	-0.00412	0.013123
